<mxfile host="app.diagrams.net" modified="2022-09-29T12:02:23.906Z" agent="5.0 (Windows NT 10.0; Win64; x64) AppleWebKit/537.36 (KHTML, like Gecko) Chrome/105.0.0.0 Safari/537.36 Edg/105.0.1343.53" etag="Frp8Xg42HJAKt_NT-C6h" version="20.3.7" type="github">
  <diagram name="Page-1" id="edf60f1a-56cd-e834-aa8a-f176f3a09ee4">
    <mxGraphModel dx="1373" dy="804" grid="1" gridSize="10" guides="1" tooltips="1" connect="1" arrows="1" fold="1" page="1" pageScale="1" pageWidth="1100" pageHeight="850" background="none" math="0" shadow="0">
      <root>
        <mxCell id="0" />
        <mxCell id="1" parent="0" />
        <mxCell id="-CgrC7thrdGahpMaEJIP-4" value="" style="edgeStyle=orthogonalEdgeStyle;rounded=0;orthogonalLoop=1;jettySize=auto;html=1;fontFamily=나눔명조;fontSize=20;" edge="1" parent="1" source="60e70716793133e9-4" target="-CgrC7thrdGahpMaEJIP-1">
          <mxGeometry relative="1" as="geometry" />
        </mxCell>
        <mxCell id="60e70716793133e9-4" value="서울올림픽&lt;br&gt;(1988)" style="rounded=0;whiteSpace=wrap;html=1;shadow=1;labelBackgroundColor=none;strokeWidth=1;fontFamily=나눔명조;fontSize=20;align=center;" parent="1" vertex="1">
          <mxGeometry x="235" y="360" width="120" height="60" as="geometry" />
        </mxCell>
        <mxCell id="-CgrC7thrdGahpMaEJIP-6" value="" style="edgeStyle=orthogonalEdgeStyle;rounded=0;orthogonalLoop=1;jettySize=auto;html=1;fontFamily=나눔명조;fontSize=20;" edge="1" parent="1" source="-CgrC7thrdGahpMaEJIP-1" target="-CgrC7thrdGahpMaEJIP-2">
          <mxGeometry relative="1" as="geometry" />
        </mxCell>
        <mxCell id="-CgrC7thrdGahpMaEJIP-1" value="6·25 전쟁&lt;br&gt;(1950)" style="rounded=0;whiteSpace=wrap;html=1;shadow=1;labelBackgroundColor=none;strokeWidth=1;fontFamily=나눔명조;fontSize=20;align=center;" vertex="1" parent="1">
          <mxGeometry x="405" y="360" width="120" height="60" as="geometry" />
        </mxCell>
        <mxCell id="-CgrC7thrdGahpMaEJIP-7" value="" style="edgeStyle=orthogonalEdgeStyle;rounded=0;orthogonalLoop=1;jettySize=auto;html=1;fontFamily=나눔명조;fontSize=20;" edge="1" parent="1" source="-CgrC7thrdGahpMaEJIP-2" target="-CgrC7thrdGahpMaEJIP-3">
          <mxGeometry relative="1" as="geometry" />
        </mxCell>
        <mxCell id="-CgrC7thrdGahpMaEJIP-2" value="&lt;span style=&quot;font-size: 20px;&quot;&gt;8·15 광복&lt;br&gt;(1945)&lt;br&gt;&lt;/span&gt;" style="rounded=0;whiteSpace=wrap;html=1;shadow=1;labelBackgroundColor=none;strokeWidth=1;fontFamily=나눔명조;fontSize=20;align=center;" vertex="1" parent="1">
          <mxGeometry x="575" y="360" width="120" height="60" as="geometry" />
        </mxCell>
        <mxCell id="-CgrC7thrdGahpMaEJIP-3" value="&lt;span style=&quot;font-size: 20px;&quot;&gt;3·1 운동&lt;br&gt;(1919)&lt;br&gt;&lt;/span&gt;" style="rounded=0;whiteSpace=wrap;html=1;shadow=1;labelBackgroundColor=none;strokeWidth=1;fontFamily=나눔명조;fontSize=20;align=center;" vertex="1" parent="1">
          <mxGeometry x="745" y="360" width="120" height="60" as="geometry" />
        </mxCell>
      </root>
    </mxGraphModel>
  </diagram>
</mxfile>
